<?xml version="1.0" encoding="utf-8"?>
<!-- Generator: Adobe Illustrator 26.3.1, SVG Export Plug-In . SVG Version: 6.00 Build 0)  -->
<svg version="1.1" id="Layer_1" xmlns="http://www.w3.org/2000/svg" xmlns:xlink="http://www.w3.org/1999/xlink" x="0px" y="0px"
	 viewBox="0 0 675 1080" style="enable-background:new 0 0 675 1080;" xml:space="preserve">
<style type="text/css">
	.st0{fill:#F4F7FA;}
	.st1{fill:#225398;}
	.st2{fill:#E03A26;}
	.st3{fill:#B3B3B3;}
	.st4{fill:#808080;}
	.st5{fill:#FFFFFF;}
	.st6{fill:#999999;}
	.st7{fill:#4D4D4D;}
	.st8{fill:#F2F2F2;}
	.st9{opacity:7.000000e-02;}
	.st10{fill:#1A3677;}
	.st11{opacity:0.38;}
</style>
<path class="st0" d="M329.3,420.9"/>
<line class="st0" x1="329.3" y1="396" x2="676.6" y2="596.6"/>
<line class="st0" x1="329.3" y1="403.3" x2="676.6" y2="603.8"/>
<g>
	
		<image style="overflow:visible;opacity:0.2;" width="706" height="1106" xlink:href="8FBACD9AFD193158.png"  transform="matrix(1 0 0 1 -9 -9)">
	</image>
	<g>
		<path class="st1" d="M675,80.8v913.1c0,44.7-39.1,80.9-87.4,80.9H-0.5V-0.1h588.1C635.9-0.1,675,36.2,675,80.8z"/>
	</g>
</g>
<path class="st2" d="M675,895.8v98.9c0,47.1-39.1,85.4-87.4,85.4H-0.5V890.6l329.8-185.7L675,895.8z"/>
<polygon class="st3" points="-0.5,556.8 329.3,370.9 329.3,704.9 -0.5,890.6 "/>
<polygon class="st4" points="676.6,566.7 329.3,370.9 329.3,704.9 675,895.8 "/>
<path class="st5" d="M247,663"/>
<polygon class="st5" points="117.7,728.8 160,752.6 287,681 244.7,657.2 "/>
<polygon class="st6" points="117.7,728.8 117.7,745.5 159.5,768.2 159.5,752.6 "/>
<polygon class="st7" points="159.5,768.2 287,697.2 287,681 159.5,752.6 "/>
<path class="st6" d="M185.9,717.2c-1.1-4-4.8-6.5-10.5-6.5c-10.4,0-23.8,8.3-29.8,18.5c-1.3,2.2-2.1,4.2-2.5,6.2
	c-0.9-3.2-0.1-7.4,2.5-12c1.6-2.7,3.8-5.3,6.3-7.7c0.8-0.8,1.7-1.5,2.5-2.2c6.4-5.2,14.3-8.6,21.1-8.6
	C183.6,704.9,187.5,710,185.9,717.2z"/>
<path class="st8" d="M185.9,717.2c-0.4,1.9-1.3,4-2.5,6.2c-6,10.2-19.4,18.5-29.8,18.5c-5.8,0-9.4-2.5-10.5-6.5
	c0.4-1.9,1.3-4,2.5-6.2c6-10.2,19.4-18.5,29.8-18.5C181.1,710.7,184.8,713.2,185.9,717.2z"/>
<path class="st6" d="M250.8,682.9c-1.1-4-4.8-6.5-10.5-6.5c-10.4,0-23.8,8.3-29.8,18.5c-1.3,2.2-2.1,4.2-2.5,6.2
	c-0.9-3.2-0.1-7.4,2.5-12c2.1-3.6,5.2-6.9,8.7-9.8c0.7-0.6,1.5-1.2,2.3-1.8c6-4.2,12.9-6.9,18.9-6.9
	C248.5,670.6,252.5,675.7,250.8,682.9z"/>
<path class="st8" d="M250.8,682.9c-0.4,1.9-1.3,4-2.5,6.2c-6,10.2-19.4,18.5-29.8,18.5c-5.8,0-9.4-2.5-10.5-6.5
	c0.4-1.9,1.3-4,2.5-6.2c6-10.2,19.4-18.5,29.8-18.5C246.1,676.4,249.7,678.9,250.8,682.9z"/>
<polyline class="st5" points="149.2,718.3 149.2,692.8 151.8,694.2 151.8,715.7 "/>
<path class="st7" d="M154.3,692.8v20.7c-0.9,0.7-1.7,1.4-2.5,2.2v-21.5L154.3,692.8z"/>
<polygon class="st5" points="151.2,691.2 169.8,700.7 167.6,702 149.2,692.8 "/>
<polygon class="st6" points="151.8,694.2 151.8,696.5 167.5,704.4 167.6,702 "/>
<polygon class="st7" points="167.5,704.4 169.8,702.9 169.8,700.7 167.6,702 "/>
<polyline class="st5" points="216.4,681.6 216.4,656.2 218.9,657.5 218.9,679 "/>
<path class="st7" d="M221.4,656.2v21.3c-0.8,0.6-1.6,1.1-2.3,1.8l-0.2-0.2v-21.5L221.4,656.2z"/>
<polygon class="st5" points="218.4,654.5 236.9,664 234.7,665.4 216.4,656.2 "/>
<polygon class="st6" points="218.9,657.5 218.9,659.8 234.6,667.7 234.7,665.4 "/>
<polygon class="st7" points="234.6,667.7 236.9,666.3 236.9,664 234.7,665.4 "/>
<polygon class="st5" points="625.6,824.2 540.9,871.9 329.3,752.6 392.8,716.8 413.9,704.9 414.9,704.4 "/>
<polygon class="st6" points="329.3,752.6 329.3,800.3 540.9,919.6 540.9,871.9 "/>
<polygon class="st7" points="540.9,919.6 625.6,871.9 625.6,824.2 540.9,871.9 "/>
<path class="st6" d="M561.5,846.1c-3.5-9.8-11.7-21.5-24.6-34.2c-35.5-34.7-93.1-62.8-128.5-62.8c-8.8,0-15.4,1.7-19.8,4.8
	c-6.2-17.2,2-28.6,24.6-28.6c35.5,0,93.1,28.1,128.5,62.8C568.4,814.2,575,836.6,561.5,846.1z"/>
<path class="st8" d="M561.5,846.1c-4.4,3.1-11,4.8-19.8,4.8c-35.5,0-93-28.1-128.5-62.8c-12.9-12.6-21.1-24.4-24.6-34.2
	c4.4-3.1,11-4.8,19.8-4.8c35.5,0,93,28.1,128.5,62.8C549.8,824.5,558,836.2,561.5,846.1z"/>
<path class="st6" d="M611,829.2c-0.9-1.5-2.4-3.2-4.2-5c-7.9-7.7-20.7-14-28.6-14c-3.3,0-5.2,1.1-5.7,2.9c-3.3-5.2-1.9-8.9,4.2-8.9
	c7.9,0,20.7,6.2,28.6,13.9C609.8,822.7,611.8,826.7,611,829.2z"/>
<path class="st8" d="M611,829.2c-0.5,1.9-2.4,2.9-5.7,2.9c-7.9,0-20.7-6.2-28.6-14c-1.8-1.8-3.2-3.5-4.2-5c0.5-1.8,2.4-2.9,5.7-2.9
	c7.9,0,20.7,6.3,28.6,14C608.6,826,610,827.7,611,829.2z"/>
<path class="st6" d="M384.2,769.5c-0.9-1.5-2.4-3.2-4.2-5c-7.9-7.7-20.7-14-28.6-14c-3.3,0-5.2,1.1-5.7,2.9
	c-3.3-5.2-1.9-8.9,4.2-8.9c7.9,0,20.7,6.2,28.6,13.9C383.1,763,385,767,384.2,769.5z"/>
<path class="st8" d="M384.2,769.5c-0.5,1.9-2.4,2.9-5.7,2.9c-7.9,0-20.7-6.2-28.6-14c-1.8-1.8-3.2-3.5-4.2-5
	c0.5-1.8,2.4-2.9,5.7-2.9c7.9,0,20.7,6.3,28.6,14C381.9,766.3,383.3,768,384.2,769.5z"/>
<polygon class="st9" points="287,696.5 287,728.4 329.8,752.7 164,846 116.6,824.3 117.7,745.5 159.5,768.2 "/>
<polygon class="st9" points="540.9,919.6 675,945.3 675,895.8 625.6,868.5 625.6,871.9 "/>
<polygon class="st5" points="-0.4,530.2 329.3,348.7 329.3,370.9 -0.5,556.8 "/>
<polygon class="st5" points="676.3,539.7 329.3,348.7 329.3,370.9 676.6,566.7 "/>
<polygon class="st1" points="348.7,824.2 495.1,913.1 437.2,954.6 287,864.2 "/>
<polygon class="st10" points="287,864.2 287,869.2 437.2,960.5 437.2,954.6 "/>
<polygon class="st10" points="437.2,960.5 495.1,919 495.1,913.1 437.2,954.6 "/>
<polygon class="st9" points="437.2,960.5 450,962.8 502.8,921.6 495.1,919 "/>
<path class="st5" d="M135.2,896.3c0,7.2-4.6,15.3-18.6,23.3c-27.6,15.9-70.6,2-96.1-8.9l-0.1,0c-11.6-5-19.6-9.3-20.7-10l-0.1-0.1
	v-9.9l75.9-42.8l42.3,23.9C117.7,871.8,135.2,882.3,135.2,896.3z"/>
<path class="st5" d="M135.2,627.5c-0.5,6.4-4.8,13.4-16.1,20.5c-0.7,0.4-1.4,0.9-2.2,1.3c-0.1,0-0.2,0.1-0.3,0.2
	c-12.7,7.3-28.7,8.3-44.8,6.2C51.4,653,31,645.3,17,639.1c-10.7-4.7-17.5-8.6-17.5-8.6v-9.9l75.9-42.8l42.3,23.9
	C117.7,601.7,136.3,612.9,135.2,627.5z"/>
<path class="st5" d="M75.4,847.9"/>
<path class="st7" d="M119.1,648c-11.2,9.3-25.4,12.9-43.7,14.5c-18.3,1.6-75.9-21.7-75.9-21.7v-10.3c0,0,6.8,3.9,17.5,8.6
	c13.9,6.2,34.4,13.9,54.8,16.6c16.1,2.1,32.1,1.1,44.8-6.2c0.1,0,0.2-0.1,0.3-0.2C117.7,648.9,118.4,648.5,119.1,648z"/>
<path class="st11" d="M135.2,627.5v268.7c0,7.2-4.6,15.3-18.6,23.3c-27.6,15.9-70.6,2-96.1-8.9l-0.1,0l-20.7-10l-0.1-0.1V640.8
	c0,0,57.6,23.3,75.9,21.7c18.3-1.6,32.6-5.2,43.7-14.5C130.4,640.9,134.6,633.9,135.2,627.5L135.2,627.5z"/>
<polygon class="st0" points="329.3,396 676.6,596.6 676.6,609.9 329.3,408.1 "/>
<rect x="484.3" y="945.3" class="st2" width="190.7" height="134.7"/>
<rect x="520.8" y="-0.1" class="st1" width="154.2" height="154.2"/>
<path class="st1" d="M-0.5-0.1"/>
<path class="st1" d="M-0.5-0.1"/>
<path class="st1" d="M675-0.1"/>
<path class="st1" d="M-0.5-0.1"/>
</svg>
