<?xml version="1.0" encoding="utf-8"?>
<!-- Generator: Adobe Illustrator 26.3.1, SVG Export Plug-In . SVG Version: 6.00 Build 0)  -->
<svg version="1.1" id="Layer_1" xmlns="http://www.w3.org/2000/svg" xmlns:xlink="http://www.w3.org/1999/xlink" x="0px" y="0px"
	 viewBox="0 0 1080 1080" style="enable-background:new 0 0 1080 1080;" xml:space="preserve">
<style type="text/css">
	.st0{fill:#13A3E4;}
	.st1{fill:#E60515;}
</style>
<polygon class="st0" points="360,680.6 360,840.6 680.7,840.6 680.7,475.4 864.7,475.4 864.7,188.2 597,188.2 597,274.6 
	778.2,274.6 778.2,389 583.1,389 583.1,734.7 446.5,734.7 446.5,681.6 "/>
<path class="st1" d="M503.5,564.4c0,8.1-3,15.4-8.3,20.6H315.6c-5.3-5.3-8.3-12.5-8.3-20.6c0-16.8,13.5-30.3,30.3-30.3h135.5
	C489.9,534.1,503.5,547.6,503.5,564.4z"/>
<path class="st0" d="M307.3,651.3c0-8.1,3-15.4,8.3-20.6h179.5c5.3,5.3,8.3,12.5,8.3,20.6c0,16.8-13.5,30.3-30.3,30.3H337.7
	C320.9,681.6,307.3,668.1,307.3,651.3z"/>
<path class="st1" d="M457.3,133.7c8.1,0,15.4,3,20.6,8.3v179.5c-5.3,5.3-12.5,8.3-20.6,8.3c-16.8,0-30.3-13.5-30.3-30.3V164
	C427,147.2,440.6,133.7,457.3,133.7z"/>
<path class="st0" d="M568.5,329.8c-8.1,0-15.4-3-20.6-8.3V141.9c5.3-5.3,12.5-8.3,20.6-8.3c16.8,0,30.3,13.5,30.3,30.3v135.5
	C598.9,316.2,585.3,329.8,568.5,329.8z"/>
<polygon class="st1" points="447.6,534.2 447.6,390.3 261,390.3 261,276.7 428.1,276.7 428.1,188.2 158.7,188.2 158.7,468.2 
	360,468.2 360,534.2 "/>
</svg>
