<?xml version="1.0" encoding="utf-8"?>
<!-- Generator: Adobe Illustrator 26.3.1, SVG Export Plug-In . SVG Version: 6.00 Build 0)  -->
<svg version="1.1" id="Layer_1" xmlns="http://www.w3.org/2000/svg" xmlns:xlink="http://www.w3.org/1999/xlink" x="0px" y="0px"
	 viewBox="0 0 1080 1080" style="enable-background:new 0 0 1080 1080;" xml:space="preserve">
<g>
	<path d="M599.5,443.4L331.7,711.2c0,0-67.7-67.7-116-116c-26.8-26.8-47.7-47.7-47.7-47.7l163.7-163.7v-74.4L93.6,547.5l223.2,223.2
		h14.9h44.7l327.2-327.2L599.5,443.4z"/>
	<polygon points="748,309.4 748,383.8 911.7,547.5 748,711.2 587,550.2 550.3,587.9 733.1,770.7 762.9,770.7 986.1,547.5 	"/>
	<polygon points="748,651.6 852.2,547.5 748,443.3 748,502.8 792.6,547.5 748,592.1 	"/>
	<polygon points="331.7,443.3 227.5,547.5 331.7,651.6 331.7,592.1 287,547.5 331.7,502.8 	"/>
</g>
</svg>
